<svg width="31" height="32" viewBox="0 0 31 32" fill="none" xmlns="http://www.w3.org/2000/svg">
<circle cx="15.5" cy="16.0064" r="15.5" fill="#BDE25F" fill-opacity="0.17"/>
<path d="M10.4474 7.00644C10.2173 7.00644 9.91364 7.06557 9.59083 7.29728C9.56526 7.31645 6.94922 9.23087 6.94922 10.2792L6.95242 10.3415C7.07387 12.8168 8.94361 15.8786 12.5105 19.4454C16.0758 23.0105 19.1377 24.8802 21.6131 25.0032L21.6546 25.0048C21.6658 25.0048 21.677 25.0064 21.6882 25.0064C22.7589 25.0064 24.6398 22.3905 24.659 22.3649C25.1432 21.6858 24.9674 20.9267 24.528 20.6135C24.2419 20.3978 21.2184 18.4178 20.8492 18.1973C20.4529 17.9704 19.9096 18.0135 19.4253 18.3044C19.1377 18.461 18.2412 18.9739 17.8257 19.2136C17.4549 18.958 16.5472 18.2708 15.1329 16.8294C13.7138 15.412 13.0123 14.5011 12.7454 14.1272C12.9867 13.7085 13.4981 12.8136 13.6595 12.5164C13.9488 11.9874 13.9823 11.4409 13.749 11.091C13.5413 10.7442 11.5245 7.6824 11.3423 7.42991C11.1793 7.1998 10.9012 7.04799 10.5832 7.01443C10.5417 7.00964 10.4969 7.00644 10.4474 7.00644Z" fill="#7D963D"/>
</svg>
